<?xml version="1.0" encoding="utf-8"?>
<!-- Generator: Adobe Illustrator 15.0.2, SVG Export Plug-In . SVG Version: 6.00 Build 0)  -->
<!DOCTYPE svg PUBLIC "-//W3C//DTD SVG 1.1//EN" "http://www.w3.org/Graphics/SVG/1.1/DTD/svg11.dtd">
<svg version="1.1" id="Layer_1" xmlns:ev="http://www.w3.org/2001/xml-events"
	 xmlns="http://www.w3.org/2000/svg" xmlns:xlink="http://www.w3.org/1999/xlink" x="0px" y="0px" width="86.828px"
	 height="33.531px" viewBox="-0.414 -0.766 86.828 33.531" enable-background="new -0.414 -0.766 86.828 33.531"
	 xml:space="preserve">
<title></title>
<desc>
	Creator: FreeHEP Graphics2D Driver Producer: org.freehep.graphicsio.svg.SVGGraphics2D Revision Source:  Date: Wednesday, July 19, 2017 8:24:58 PM PDT
	</desc>
<g>
	<g transform="matrix(1, 0, 0, 1, -153, -37)">
		<g>
			<path fill="#EDF4F6" d="M154.086,45.234v15.531c0,4.143,3.358,7.5,7.5,7.5h68.828c4.143,0,7.5-3.357,7.5-7.5V45.234
				c0-4.142-3.357-7.5-7.5-7.5h-68.828C157.444,37.734,154.086,41.092,154.086,45.234z"/>
		</g>
	</g>
	<g transform="matrix(1, 0, 0, 1, 11, 19.1171875)">
		<g>
			<path d="M5.924-0.41C5.557-0.234,5.208-0.098,4.878,0S4.197,0.146,3.826,0.146c-0.473,0-0.906-0.069-1.301-0.208
				S1.793-0.41,1.512-0.691C1.227-0.973,1.006-1.328,0.85-1.758S0.615-2.689,0.615-3.264c0-1.07,0.294-1.91,0.882-2.52
				s1.364-0.914,2.329-0.914c0.375,0,0.743,0.053,1.104,0.158s0.692,0.234,0.993,0.387v1.225H5.865
				c-0.336-0.262-0.683-0.463-1.04-0.604S4.119-5.742,3.779-5.742c-0.625,0-1.118,0.21-1.479,0.63S1.758-4.076,1.758-3.264
				c0,0.789,0.177,1.396,0.53,1.819s0.851,0.636,1.491,0.636c0.223,0,0.449-0.029,0.68-0.088S4.896-1.031,5.08-1.125
				c0.16-0.082,0.311-0.169,0.451-0.261s0.252-0.171,0.334-0.237h0.059V-0.41z M12.914-3.27c0,1.066-0.273,1.908-0.82,2.525
				s-1.279,0.926-2.197,0.926c-0.926,0-1.661-0.309-2.206-0.926S6.873-2.203,6.873-3.27S7.146-5.179,7.69-5.798
				s1.28-0.929,2.206-0.929c0.918,0,1.65,0.31,2.197,0.929S12.914-4.336,12.914-3.27z M11.777-3.27c0-0.848-0.166-1.478-0.498-1.89
				s-0.793-0.618-1.383-0.618c-0.598,0-1.062,0.206-1.392,0.618S8.01-4.117,8.01-3.27c0,0.82,0.166,1.442,0.498,1.866
				s0.795,0.636,1.389,0.636c0.586,0,1.046-0.21,1.38-0.63S11.777-2.441,11.777-3.27z M20.092,0H18.99v-3.727
				c0-0.301-0.018-0.583-0.053-0.847s-0.1-0.47-0.193-0.618c-0.098-0.164-0.238-0.286-0.422-0.366s-0.422-0.12-0.715-0.12
				c-0.301,0-0.615,0.074-0.943,0.223s-0.643,0.338-0.943,0.568V0h-1.102v-6.545h1.102v0.727c0.344-0.285,0.699-0.508,1.066-0.668
				s0.744-0.24,1.131-0.24c0.707,0,1.246,0.213,1.617,0.639s0.557,1.039,0.557,1.84V0z M27.053-0.41
				C26.686-0.234,26.337-0.098,26.007,0s-0.681,0.146-1.052,0.146c-0.473,0-0.906-0.069-1.301-0.208s-0.732-0.349-1.014-0.63
				c-0.285-0.281-0.506-0.637-0.662-1.066s-0.234-0.932-0.234-1.506c0-1.07,0.294-1.91,0.882-2.52s1.364-0.914,2.329-0.914
				c0.375,0,0.743,0.053,1.104,0.158s0.692,0.234,0.993,0.387v1.225h-0.059c-0.336-0.262-0.683-0.463-1.04-0.604
				s-0.706-0.211-1.046-0.211c-0.625,0-1.118,0.21-1.479,0.63s-0.542,1.036-0.542,1.849c0,0.789,0.177,1.396,0.53,1.819
				s0.851,0.636,1.491,0.636c0.223,0,0.449-0.029,0.68-0.088s0.438-0.135,0.621-0.229c0.16-0.082,0.311-0.169,0.451-0.261
				s0.252-0.171,0.334-0.237h0.059V-0.41z M33.943-3.158h-4.822c0,0.402,0.061,0.753,0.182,1.052s0.287,0.544,0.498,0.735
				c0.203,0.188,0.444,0.328,0.724,0.422s0.587,0.141,0.923,0.141c0.445,0,0.894-0.089,1.345-0.267s0.772-0.353,0.964-0.524h0.059
				v1.201c-0.371,0.156-0.75,0.287-1.137,0.393s-0.793,0.158-1.219,0.158c-1.086,0-1.934-0.294-2.543-0.882
				s-0.914-1.423-0.914-2.505c0-1.07,0.292-1.92,0.876-2.549s1.353-0.943,2.306-0.943c0.883,0,1.563,0.258,2.042,0.773
				s0.718,1.248,0.718,2.197V-3.158z M32.871-4.002c-0.004-0.578-0.149-1.025-0.437-1.342s-0.724-0.475-1.31-0.475
				c-0.59,0-1.06,0.174-1.409,0.521s-0.548,0.779-0.595,1.295H32.871z M41.373-3.352c0,0.531-0.076,1.017-0.229,1.456
				S40.777-1.084,40.5-0.779c-0.258,0.289-0.562,0.513-0.911,0.671s-0.72,0.237-1.11,0.237c-0.34,0-0.647-0.037-0.923-0.111
				S37-0.172,36.715-0.328v2.742h-1.102v-8.959h1.102v0.686c0.293-0.246,0.622-0.452,0.987-0.618s0.755-0.249,1.169-0.249
				c0.789,0,1.403,0.298,1.843,0.894S41.373-4.41,41.373-3.352z M40.236-3.322c0-0.789-0.135-1.379-0.404-1.77
				s-0.684-0.586-1.242-0.586c-0.316,0-0.635,0.068-0.955,0.205s-0.627,0.316-0.92,0.539v3.709c0.312,0.141,0.581,0.236,0.806,0.287
				S38-0.861,38.285-0.861c0.613,0,1.092-0.207,1.436-0.621S40.236-2.51,40.236-3.322z M46.488-0.059
				c-0.207,0.055-0.433,0.1-0.677,0.135s-0.462,0.053-0.653,0.053c-0.668,0-1.176-0.18-1.523-0.539s-0.521-0.936-0.521-1.729v-3.48
				h-0.744v-0.926h0.744v-1.881h1.102v1.881h2.273v0.926h-2.273v2.982c0,0.344,0.008,0.612,0.023,0.806s0.07,0.374,0.164,0.542
				c0.086,0.156,0.204,0.271,0.354,0.343s0.38,0.108,0.688,0.108c0.18,0,0.367-0.026,0.562-0.079s0.336-0.097,0.422-0.132h0.059
				V-0.059z M53.244,0h-1.102v-0.727c-0.371,0.293-0.727,0.518-1.066,0.674s-0.715,0.234-1.125,0.234
				c-0.688,0-1.223-0.21-1.605-0.63s-0.574-1.036-0.574-1.849v-4.248h1.102v3.727c0,0.332,0.016,0.616,0.047,0.853
				s0.098,0.438,0.199,0.606c0.105,0.172,0.242,0.297,0.41,0.375s0.412,0.117,0.732,0.117c0.285,0,0.597-0.074,0.935-0.223
				s0.653-0.338,0.946-0.568v-4.887h1.102V0z M60.498,0h-1.096v-0.697c-0.098,0.066-0.229,0.159-0.396,0.278
				s-0.327,0.214-0.483,0.284c-0.184,0.09-0.395,0.165-0.633,0.226s-0.518,0.091-0.838,0.091c-0.59,0-1.09-0.195-1.5-0.586
				s-0.615-0.889-0.615-1.494c0-0.496,0.106-0.897,0.319-1.204s0.517-0.548,0.911-0.724c0.398-0.176,0.877-0.295,1.436-0.357
				s1.158-0.109,1.799-0.141v-0.17c0-0.25-0.044-0.457-0.132-0.621s-0.214-0.293-0.378-0.387c-0.156-0.09-0.344-0.15-0.562-0.182
				S57.883-5.73,57.645-5.73c-0.289,0-0.611,0.038-0.967,0.114s-0.723,0.187-1.102,0.331h-0.059v-1.119
				c0.215-0.059,0.525-0.123,0.932-0.193s0.807-0.105,1.201-0.105c0.461,0,0.862,0.038,1.204,0.114s0.638,0.206,0.888,0.39
				c0.246,0.18,0.434,0.412,0.562,0.697s0.193,0.639,0.193,1.061V0z M59.402-1.611v-1.822c-0.336,0.02-0.731,0.049-1.187,0.088
				S57.4-3.25,57.135-3.176c-0.316,0.09-0.572,0.229-0.768,0.419s-0.293,0.45-0.293,0.782c0,0.375,0.113,0.657,0.34,0.847
				s0.572,0.284,1.037,0.284c0.387,0,0.74-0.075,1.061-0.226S59.129-1.4,59.402-1.611z M63.732,0h-1.102v-9.117h1.102V0z"/>
		</g>
	</g>
	<g transform="matrix(1, 0, 0, 1, -153, -37)">
		<g>
			<path fill="none" stroke="#000000" stroke-width="3" stroke-linecap="square" stroke-miterlimit="10" d="M154.086,45.234v15.531
				c0,4.143,3.358,7.5,7.5,7.5h68.828c4.143,0,7.5-3.357,7.5-7.5V45.234c0-4.142-3.357-7.5-7.5-7.5h-68.828
				C157.444,37.734,154.086,41.092,154.086,45.234z"/>
		</g>
	</g>
</g>
</svg>
