<?xml version="1.0" encoding="utf-8"?>
<!-- Generator: Adobe Illustrator 15.0.2, SVG Export Plug-In . SVG Version: 6.00 Build 0)  -->
<!DOCTYPE svg PUBLIC "-//W3C//DTD SVG 1.1//EN" "http://www.w3.org/Graphics/SVG/1.1/DTD/svg11.dtd">
<svg version="1.1" id="Layer_1" xmlns:ev="http://www.w3.org/2001/xml-events"
	 xmlns="http://www.w3.org/2000/svg" xmlns:xlink="http://www.w3.org/1999/xlink" x="0px" y="0px" width="58.873px"
	 height="31.299px" viewBox="-0.437 -0.649 58.873 31.299" enable-background="new -0.437 -0.649 58.873 31.299"
	 xml:space="preserve">
<title></title>
<desc>
	Creator: FreeHEP Graphics2D Driver Producer: org.freehep.graphicsio.svg.SVGGraphics2D Revision Source:  Date: Wednesday, July 19, 2017 8:24:40 PM PDT
	</desc>
<g>
	<g transform="matrix(1, 0, 0, 1, -166, -35)">
		<g>
			<path fill="#EDF4F6" d="M167.063,43.351v13.299c0,4.142,3.358,7.5,7.5,7.5h40.873c4.142,0,7.5-3.358,7.5-7.5V43.351
				c0-4.142-3.358-7.5-7.5-7.5h-40.873C170.421,35.851,167.063,39.208,167.063,43.351z"/>
		</g>
	</g>
	<g transform="matrix(1, 0, 0, 1, 11, 19.1171875)">
		<g>
			<path d="M10.635,0H9.533v-3.727c0-0.281-0.013-0.553-0.038-0.814S9.416-5.012,9.334-5.168c-0.09-0.168-0.219-0.295-0.387-0.381
				s-0.41-0.129-0.727-0.129c-0.309,0-0.617,0.077-0.926,0.231S6.678-5.096,6.369-4.857c0.012,0.09,0.021,0.194,0.029,0.313
				S6.41-4.307,6.41-4.189V0H5.309v-3.727c0-0.289-0.013-0.563-0.038-0.823S5.191-5.018,5.109-5.174
				C5.02-5.342,4.891-5.468,4.723-5.552s-0.41-0.126-0.727-0.126c-0.301,0-0.603,0.074-0.905,0.223S2.486-5.117,2.186-4.887V0H1.084
				v-6.545h1.102v0.727c0.344-0.285,0.687-0.508,1.028-0.668s0.706-0.24,1.093-0.24c0.445,0,0.823,0.094,1.134,0.281
				s0.542,0.447,0.694,0.779C6.58-6.041,6.986-6.312,7.354-6.478s0.76-0.249,1.178-0.249c0.719,0,1.249,0.218,1.591,0.653
				s0.513,1.044,0.513,1.825V0z M18.334-3.27c0,1.066-0.273,1.908-0.82,2.525s-1.279,0.926-2.197,0.926
				c-0.926,0-1.661-0.309-2.206-0.926s-0.817-1.459-0.817-2.525s0.272-1.909,0.817-2.528s1.28-0.929,2.206-0.929
				c0.918,0,1.65,0.31,2.197,0.929S18.334-4.336,18.334-3.27z M17.197-3.27c0-0.848-0.166-1.478-0.498-1.89
				s-0.793-0.618-1.383-0.618c-0.598,0-1.062,0.206-1.392,0.618S13.43-4.117,13.43-3.27c0,0.82,0.166,1.442,0.498,1.866
				s0.795,0.636,1.389,0.636c0.586,0,1.046-0.21,1.38-0.63S17.197-2.441,17.197-3.27z M25.348,0h-1.102v-0.686
				c-0.316,0.273-0.646,0.486-0.99,0.639s-0.717,0.229-1.119,0.229c-0.781,0-1.401-0.301-1.86-0.902s-0.688-1.436-0.688-2.502
				c0-0.555,0.079-1.049,0.237-1.482s0.372-0.803,0.642-1.107c0.266-0.297,0.575-0.523,0.929-0.68s0.72-0.234,1.099-0.234
				c0.344,0,0.648,0.036,0.914,0.108s0.545,0.185,0.838,0.337v-2.836h1.102V0z M24.246-1.611v-3.756
				c-0.297-0.133-0.562-0.225-0.797-0.275s-0.49-0.076-0.768-0.076c-0.617,0-1.098,0.215-1.441,0.645s-0.516,1.039-0.516,1.828
				c0,0.777,0.133,1.368,0.398,1.772s0.691,0.606,1.277,0.606c0.312,0,0.629-0.069,0.949-0.208S23.969-1.393,24.246-1.611z
				 M32.994-3.158h-4.822c0,0.402,0.061,0.753,0.182,1.052s0.287,0.544,0.498,0.735c0.203,0.188,0.444,0.328,0.724,0.422
				s0.587,0.141,0.923,0.141c0.445,0,0.894-0.089,1.345-0.267s0.772-0.353,0.964-0.524h0.059v1.201
				c-0.371,0.156-0.75,0.287-1.137,0.393s-0.793,0.158-1.219,0.158c-1.086,0-1.934-0.294-2.543-0.882s-0.914-1.423-0.914-2.505
				c0-1.07,0.292-1.92,0.876-2.549s1.353-0.943,2.306-0.943c0.883,0,1.563,0.258,2.042,0.773s0.718,1.248,0.718,2.197V-3.158z
				 M31.922-4.002c-0.004-0.578-0.149-1.025-0.437-1.342s-0.724-0.475-1.31-0.475c-0.59,0-1.06,0.174-1.409,0.521
				s-0.548,0.779-0.595,1.295H31.922z M35.777,0h-1.102v-9.117h1.102V0z"/>
		</g>
	</g>
	<g transform="matrix(1, 0, 0, 1, -166, -35)">
		<g>
			<path fill="none" stroke="#000000" stroke-width="3" stroke-linecap="square" stroke-miterlimit="10" d="M167.063,43.351v13.299
				c0,4.142,3.358,7.5,7.5,7.5h40.873c4.142,0,7.5-3.358,7.5-7.5V43.351c0-4.142-3.358-7.5-7.5-7.5h-40.873
				C170.421,35.851,167.063,39.208,167.063,43.351z"/>
		</g>
	</g>
</g>
</svg>
