<?xml version="1.0" encoding="utf-8"?>
<!-- Generator: Adobe Illustrator 15.0.2, SVG Export Plug-In . SVG Version: 6.00 Build 0)  -->
<!DOCTYPE svg PUBLIC "-//W3C//DTD SVG 1.1//EN" "http://www.w3.org/Graphics/SVG/1.1/DTD/svg11.dtd">
<svg version="1.1" id="Layer_1" xmlns:ev="http://www.w3.org/2001/xml-events"
	 xmlns="http://www.w3.org/2000/svg" xmlns:xlink="http://www.w3.org/1999/xlink" x="0px" y="0px" width="77px" height="35px"
	 viewBox="-0.5 -0.5 77 35" enable-background="new -0.5 -0.5 77 35" xml:space="preserve">
<title></title>
<desc>
	Creator: FreeHEP Graphics2D Driver Producer: org.freehep.graphicsio.svg.SVGGraphics2D Revision Source:  Date: Wednesday, July 19, 2017 8:25:09 PM PDT
	</desc>
<g>
	<g transform="matrix(1, 0, 0, 1, -159, -67)">
		<g>
			<path fill="#EDF4F6" d="M160,75.5v17c0,4.143,3.358,7.5,7.5,7.5h59c4.143,0,7.5-3.357,7.5-7.5v-17c0-4.142-3.357-7.5-7.5-7.5h-59
				C163.358,68,160,71.358,160,75.5z"/>
		</g>
	</g>
	<g transform="matrix(1, 0, 0, 1, 11, 21.783203125)">
		<g>
			<path d="M6.557,0H5.455v-3.727c0-0.301-0.018-0.583-0.053-0.847s-0.1-0.47-0.193-0.618C5.111-5.355,4.971-5.478,4.787-5.558
				s-0.422-0.12-0.715-0.12c-0.301,0-0.615,0.074-0.943,0.223S2.486-5.117,2.186-4.887V0H1.084v-6.545h1.102v0.727
				c0.344-0.285,0.699-0.508,1.066-0.668s0.744-0.24,1.131-0.24C5.09-6.727,5.629-6.514,6-6.088s0.557,1.039,0.557,1.84V0z
				 M13.764,0h-1.096v-0.697c-0.098,0.066-0.229,0.159-0.396,0.278s-0.327,0.214-0.483,0.284c-0.184,0.09-0.395,0.165-0.633,0.226
				s-0.518,0.091-0.838,0.091c-0.59,0-1.09-0.195-1.5-0.586S8.203-1.293,8.203-1.898c0-0.496,0.106-0.897,0.319-1.204
				S9.039-3.65,9.434-3.826c0.398-0.176,0.877-0.295,1.436-0.357s1.158-0.109,1.799-0.141v-0.17c0-0.25-0.044-0.457-0.132-0.621
				s-0.214-0.293-0.378-0.387c-0.156-0.09-0.344-0.15-0.562-0.182S11.148-5.73,10.91-5.73c-0.289,0-0.611,0.038-0.967,0.114
				S9.221-5.43,8.842-5.285H8.783v-1.119c0.215-0.059,0.525-0.123,0.932-0.193s0.807-0.105,1.201-0.105
				c0.461,0,0.862,0.038,1.204,0.114s0.638,0.206,0.888,0.39c0.246,0.18,0.434,0.412,0.562,0.697s0.193,0.639,0.193,1.061V0z
				 M12.668-1.611v-1.822c-0.336,0.02-0.731,0.049-1.187,0.088S10.666-3.25,10.4-3.176c-0.316,0.09-0.572,0.229-0.768,0.419
				S9.34-2.307,9.34-1.975c0,0.375,0.113,0.657,0.34,0.847s0.572,0.284,1.037,0.284c0.387,0,0.74-0.075,1.061-0.226
				S12.395-1.4,12.668-1.611z M19.969-5.344H19.91c-0.164-0.039-0.323-0.067-0.478-0.085s-0.337-0.026-0.548-0.026
				c-0.34,0-0.668,0.075-0.984,0.226s-0.621,0.345-0.914,0.583V0h-1.102v-6.545h1.102v0.967c0.438-0.352,0.823-0.601,1.157-0.747
				s0.675-0.22,1.022-0.22c0.191,0,0.33,0.005,0.416,0.015s0.215,0.028,0.387,0.056V-5.344z M25.09-5.344h-0.059
				c-0.164-0.039-0.323-0.067-0.478-0.085s-0.337-0.026-0.548-0.026c-0.34,0-0.668,0.075-0.984,0.226S22.4-4.885,22.107-4.646V0
				h-1.102v-6.545h1.102v0.967c0.438-0.352,0.823-0.601,1.157-0.747s0.675-0.22,1.022-0.22c0.191,0,0.33,0.005,0.416,0.015
				s0.215,0.028,0.387,0.056V-5.344z M31.213,0h-1.096v-0.697c-0.098,0.066-0.229,0.159-0.396,0.278s-0.327,0.214-0.483,0.284
				c-0.184,0.09-0.395,0.165-0.633,0.226s-0.518,0.091-0.838,0.091c-0.59,0-1.09-0.195-1.5-0.586s-0.615-0.889-0.615-1.494
				c0-0.496,0.106-0.897,0.319-1.204s0.517-0.548,0.911-0.724c0.398-0.176,0.877-0.295,1.436-0.357s1.158-0.109,1.799-0.141v-0.17
				c0-0.25-0.044-0.457-0.132-0.621s-0.214-0.293-0.378-0.387c-0.156-0.09-0.344-0.15-0.562-0.182S28.598-5.73,28.359-5.73
				c-0.289,0-0.611,0.038-0.967,0.114S26.67-5.43,26.291-5.285h-0.059v-1.119c0.215-0.059,0.525-0.123,0.932-0.193
				s0.807-0.105,1.201-0.105c0.461,0,0.862,0.038,1.204,0.114s0.638,0.206,0.888,0.39c0.246,0.18,0.434,0.412,0.562,0.697
				s0.193,0.639,0.193,1.061V0z M30.117-1.611v-1.822c-0.336,0.02-0.731,0.049-1.187,0.088s-0.815,0.096-1.081,0.17
				c-0.316,0.09-0.572,0.229-0.768,0.419s-0.293,0.45-0.293,0.782c0,0.375,0.113,0.657,0.34,0.847s0.572,0.284,1.037,0.284
				c0.387,0,0.74-0.075,1.061-0.226S29.844-1.4,30.117-1.611z M36.732-0.059c-0.207,0.055-0.433,0.1-0.677,0.135
				s-0.462,0.053-0.653,0.053c-0.668,0-1.176-0.18-1.523-0.539s-0.521-0.936-0.521-1.729v-3.48h-0.744v-0.926h0.744v-1.881h1.102
				v1.881h2.273v0.926h-2.273v2.982c0,0.344,0.008,0.612,0.023,0.806s0.07,0.374,0.164,0.542c0.086,0.156,0.204,0.271,0.354,0.343
				s0.38,0.108,0.688,0.108c0.18,0,0.367-0.026,0.562-0.079s0.336-0.097,0.422-0.132h0.059V-0.059z M39.246-7.641h-1.242v-1.143
				h1.242V-7.641z M39.176,0h-1.102v-6.545h1.102V0z M47.016-6.545L44.367,0H43.26l-2.631-6.545h1.195l2.027,5.209l2.01-5.209
				H47.016z M53.936-3.158h-4.822c0,0.402,0.061,0.753,0.182,1.052s0.287,0.544,0.498,0.735c0.203,0.188,0.444,0.328,0.724,0.422
				s0.587,0.141,0.923,0.141c0.445,0,0.894-0.089,1.345-0.267s0.772-0.353,0.964-0.524h0.059v1.201
				c-0.371,0.156-0.75,0.287-1.137,0.393s-0.793,0.158-1.219,0.158c-1.086,0-1.934-0.294-2.543-0.882s-0.914-1.423-0.914-2.505
				c0-1.07,0.292-1.92,0.876-2.549s1.353-0.943,2.306-0.943c0.883,0,1.563,0.258,2.042,0.773s0.718,1.248,0.718,2.197V-3.158z
				 M52.863-4.002c-0.004-0.578-0.149-1.025-0.437-1.342s-0.724-0.475-1.31-0.475c-0.59,0-1.06,0.174-1.409,0.521
				s-0.548,0.779-0.595,1.295H52.863z"/>
		</g>
	</g>
	<g transform="matrix(1, 0, 0, 1, -159, -67)">
		<g>
			<path fill="none" stroke="#000000" stroke-width="3" stroke-linecap="square" stroke-miterlimit="10" d="M160,75.5v17
				c0,4.143,3.358,7.5,7.5,7.5h59c4.143,0,7.5-3.357,7.5-7.5v-17c0-4.142-3.357-7.5-7.5-7.5h-59C163.358,68,160,71.358,160,75.5z"/>
		</g>
	</g>
</g>
</svg>
