<?xml version="1.0" encoding="utf-8"?>
<!-- Generator: Adobe Illustrator 15.0.2, SVG Export Plug-In . SVG Version: 6.00 Build 0)  -->
<!DOCTYPE svg PUBLIC "-//W3C//DTD SVG 1.1//EN" "http://www.w3.org/Graphics/SVG/1.1/DTD/svg11.dtd">
<svg version="1.1" id="Layer_1" xmlns:ev="http://www.w3.org/2001/xml-events"
	 xmlns="http://www.w3.org/2000/svg" xmlns:xlink="http://www.w3.org/1999/xlink" x="0px" y="0px" width="99.584px" height="36px"
	 viewBox="-0.792 -1 99.584 36" enable-background="new -0.792 -1 99.584 36" xml:space="preserve">
<title></title>
<desc>
	Creator: FreeHEP Graphics2D Driver Producer: org.freehep.graphicsio.svg.SVGGraphics2D Revision Source:  Date: Wednesday, July 19, 2017 8:24:49 PM PDT
	</desc>
<g>
	<g transform="matrix(1, 0, 0, 1, -149, -35)">
		<g>
			<path fill="#EDF4F6" d="M149.708,43v18c0,4.143,3.358,7.5,7.5,7.5h81.584c4.142,0,7.5-3.357,7.5-7.5V43
				c0-4.142-3.358-7.5-7.5-7.5h-81.584C153.066,35.5,149.708,38.858,149.708,43z"/>
		</g>
	</g>
	<g transform="matrix(1, 0, 0, 1, 10, 20.1171875)">
		<g>
			<path d="M6.844-3.352c0,0.531-0.076,1.017-0.229,1.456S6.248-1.084,5.971-0.779C5.713-0.49,5.409-0.267,5.06-0.108
				s-0.72,0.237-1.11,0.237c-0.34,0-0.647-0.037-0.923-0.111S2.471-0.172,2.186-0.328v2.742H1.084v-8.959h1.102v0.686
				c0.293-0.246,0.622-0.452,0.987-0.618s0.755-0.249,1.169-0.249c0.789,0,1.403,0.298,1.843,0.894S6.844-4.41,6.844-3.352z
				 M5.707-3.322c0-0.789-0.135-1.379-0.404-1.77S4.619-5.678,4.061-5.678c-0.316,0-0.635,0.068-0.955,0.205
				s-0.627,0.316-0.92,0.539v3.709c0.312,0.141,0.581,0.236,0.806,0.287s0.479,0.076,0.765,0.076c0.613,0,1.092-0.207,1.436-0.621
				S5.707-2.51,5.707-3.322z M12.645-5.344h-0.059c-0.164-0.039-0.323-0.067-0.478-0.085s-0.337-0.026-0.548-0.026
				c-0.34,0-0.668,0.075-0.984,0.226S9.955-4.885,9.662-4.646V0H8.561v-6.545h1.102v0.967c0.438-0.352,0.823-0.601,1.157-0.747
				s0.675-0.22,1.022-0.22c0.191,0,0.33,0.005,0.416,0.015s0.215,0.028,0.387,0.056V-5.344z M19.26-3.27
				c0,1.066-0.273,1.908-0.82,2.525s-1.279,0.926-2.197,0.926c-0.926,0-1.661-0.309-2.206-0.926s-0.817-1.459-0.817-2.525
				s0.272-1.909,0.817-2.528s1.28-0.929,2.206-0.929c0.918,0,1.65,0.31,2.197,0.929S19.26-4.336,19.26-3.27z M18.123-3.27
				c0-0.848-0.166-1.478-0.498-1.89s-0.793-0.618-1.383-0.618c-0.598,0-1.062,0.206-1.392,0.618s-0.495,1.042-0.495,1.89
				c0,0.82,0.166,1.442,0.498,1.866s0.795,0.636,1.389,0.636c0.586,0,1.046-0.21,1.38-0.63S18.123-2.441,18.123-3.27z M26.725-3.352
				c0,0.531-0.076,1.017-0.229,1.456s-0.367,0.812-0.645,1.116C25.594-0.49,25.29-0.267,24.94-0.108s-0.72,0.237-1.11,0.237
				c-0.34,0-0.647-0.037-0.923-0.111s-0.556-0.189-0.841-0.346v2.742h-1.102v-8.959h1.102v0.686
				c0.293-0.246,0.622-0.452,0.987-0.618s0.755-0.249,1.169-0.249c0.789,0,1.403,0.298,1.843,0.894S26.725-4.41,26.725-3.352z
				 M25.588-3.322c0-0.789-0.135-1.379-0.404-1.77S24.5-5.678,23.941-5.678c-0.316,0-0.635,0.068-0.955,0.205
				s-0.627,0.316-0.92,0.539v3.709c0.312,0.141,0.581,0.236,0.806,0.287s0.479,0.076,0.765,0.076c0.613,0,1.092-0.207,1.436-0.621
				S25.588-2.51,25.588-3.322z M34.02-3.27c0,1.066-0.273,1.908-0.82,2.525s-1.279,0.926-2.197,0.926
				c-0.926,0-1.661-0.309-2.206-0.926s-0.817-1.459-0.817-2.525s0.272-1.909,0.817-2.528s1.28-0.929,2.206-0.929
				c0.918,0,1.65,0.31,2.197,0.929S34.02-4.336,34.02-3.27z M32.883-3.27c0-0.848-0.166-1.478-0.498-1.89s-0.793-0.618-1.383-0.618
				c-0.598,0-1.062,0.206-1.392,0.618s-0.495,1.042-0.495,1.89c0,0.82,0.166,1.442,0.498,1.866s0.795,0.636,1.389,0.636
				c0.586,0,1.046-0.21,1.38-0.63S32.883-2.441,32.883-3.27z M40.4-1.887c0,0.598-0.247,1.088-0.741,1.471s-1.169,0.574-2.024,0.574
				c-0.484,0-0.929-0.058-1.333-0.173s-0.743-0.241-1.017-0.378v-1.236h0.059c0.348,0.262,0.734,0.47,1.16,0.624
				s0.834,0.231,1.225,0.231c0.484,0,0.863-0.078,1.137-0.234s0.41-0.402,0.41-0.738c0-0.258-0.074-0.453-0.223-0.586
				s-0.434-0.246-0.855-0.34c-0.156-0.035-0.36-0.076-0.612-0.123s-0.481-0.098-0.688-0.152c-0.574-0.152-0.981-0.376-1.222-0.671
				s-0.36-0.657-0.36-1.087c0-0.27,0.056-0.523,0.167-0.762s0.28-0.451,0.507-0.639c0.219-0.184,0.497-0.329,0.835-0.437
				s0.716-0.161,1.134-0.161c0.391,0,0.786,0.048,1.187,0.144s0.733,0.212,0.999,0.349v1.178h-0.059
				c-0.281-0.207-0.623-0.382-1.025-0.524s-0.797-0.214-1.184-0.214c-0.402,0-0.742,0.077-1.02,0.231s-0.416,0.384-0.416,0.688
				c0,0.27,0.084,0.473,0.252,0.609c0.164,0.137,0.43,0.248,0.797,0.334c0.203,0.047,0.431,0.094,0.683,0.141s0.462,0.09,0.63,0.129
				c0.512,0.117,0.906,0.318,1.184,0.604C40.262-2.746,40.4-2.363,40.4-1.887z M43.16-7.641h-1.242v-1.143h1.242V-7.641z M43.09,0
				h-1.102v-6.545h1.102V0z M48.668-0.059c-0.207,0.055-0.433,0.1-0.677,0.135s-0.462,0.053-0.653,0.053
				c-0.668,0-1.176-0.18-1.523-0.539s-0.521-0.936-0.521-1.729v-3.48h-0.744v-0.926h0.744v-1.881h1.102v1.881h2.273v0.926h-2.273
				v2.982c0,0.344,0.008,0.612,0.023,0.806s0.07,0.374,0.164,0.542c0.086,0.156,0.204,0.271,0.354,0.343s0.38,0.108,0.688,0.108
				c0.18,0,0.367-0.026,0.562-0.079s0.336-0.097,0.422-0.132h0.059V-0.059z M51.182-7.641h-1.242v-1.143h1.242V-7.641z M51.111,0
				H50.01v-6.545h1.102V0z M58.869-3.27c0,1.066-0.273,1.908-0.82,2.525s-1.279,0.926-2.197,0.926c-0.926,0-1.661-0.309-2.206-0.926
				s-0.817-1.459-0.817-2.525s0.272-1.909,0.817-2.528s1.28-0.929,2.206-0.929c0.918,0,1.65,0.31,2.197,0.929
				S58.869-4.336,58.869-3.27z M57.732-3.27c0-0.848-0.166-1.478-0.498-1.89s-0.793-0.618-1.383-0.618
				c-0.598,0-1.062,0.206-1.392,0.618s-0.495,1.042-0.495,1.89c0,0.82,0.166,1.442,0.498,1.866s0.795,0.636,1.389,0.636
				c0.586,0,1.046-0.21,1.38-0.63S57.732-2.441,57.732-3.27z M66.047,0h-1.102v-3.727c0-0.301-0.018-0.583-0.053-0.847
				s-0.1-0.47-0.193-0.618c-0.098-0.164-0.238-0.286-0.422-0.366s-0.422-0.12-0.715-0.12c-0.301,0-0.615,0.074-0.943,0.223
				s-0.643,0.338-0.943,0.568V0h-1.102v-6.545h1.102v0.727c0.344-0.285,0.699-0.508,1.066-0.668s0.744-0.24,1.131-0.24
				c0.707,0,1.246,0.213,1.617,0.639s0.557,1.039,0.557,1.84V0z M73.254,0h-1.096v-0.697c-0.098,0.066-0.229,0.159-0.396,0.278
				s-0.327,0.214-0.483,0.284c-0.184,0.09-0.395,0.165-0.633,0.226s-0.518,0.091-0.838,0.091c-0.59,0-1.09-0.195-1.5-0.586
				s-0.615-0.889-0.615-1.494c0-0.496,0.106-0.897,0.319-1.204s0.517-0.548,0.911-0.724c0.398-0.176,0.877-0.295,1.436-0.357
				s1.158-0.109,1.799-0.141v-0.17c0-0.25-0.044-0.457-0.132-0.621s-0.214-0.293-0.378-0.387c-0.156-0.09-0.344-0.15-0.562-0.182
				S70.639-5.73,70.4-5.73c-0.289,0-0.611,0.038-0.967,0.114s-0.723,0.187-1.102,0.331h-0.059v-1.119
				c0.215-0.059,0.525-0.123,0.932-0.193s0.807-0.105,1.201-0.105c0.461,0,0.862,0.038,1.204,0.114s0.638,0.206,0.888,0.39
				c0.246,0.18,0.434,0.412,0.562,0.697s0.193,0.639,0.193,1.061V0z M72.158-1.611v-1.822c-0.336,0.02-0.731,0.049-1.187,0.088
				s-0.815,0.096-1.081,0.17c-0.316,0.09-0.572,0.229-0.768,0.419s-0.293,0.45-0.293,0.782c0,0.375,0.113,0.657,0.34,0.847
				s0.572,0.284,1.037,0.284c0.387,0,0.74-0.075,1.061-0.226S71.885-1.4,72.158-1.611z M76.488,0h-1.102v-9.117h1.102V0z"/>
		</g>
	</g>
	<g transform="matrix(1, 0, 0, 1, -149, -35)">
		<g>
			<path fill="none" stroke="#000000" stroke-width="3" stroke-linecap="square" stroke-miterlimit="10" d="M149.708,43v18
				c0,4.143,3.358,7.5,7.5,7.5h81.584c4.142,0,7.5-3.357,7.5-7.5V43c0-4.142-3.358-7.5-7.5-7.5h-81.584
				C153.066,35.5,149.708,38.858,149.708,43z"/>
		</g>
	</g>
</g>
</svg>
