<?xml version="1.0" encoding="utf-8"?>
<!-- Generator: Adobe Illustrator 15.0.2, SVG Export Plug-In . SVG Version: 6.00 Build 0)  -->
<!DOCTYPE svg PUBLIC "-//W3C//DTD SVG 1.1//EN" "http://www.w3.org/Graphics/SVG/1.1/DTD/svg11.dtd">
<svg version="1.1" id="Layer_1" xmlns:ev="http://www.w3.org/2001/xml-events"
	 xmlns="http://www.w3.org/2000/svg" xmlns:xlink="http://www.w3.org/1999/xlink" x="0px" y="0px" width="82.357px"
	 height="31.299px" viewBox="-0.179 -0.649 82.357 31.299" enable-background="new -0.179 -0.649 82.357 31.299"
	 xml:space="preserve">
<title></title>
<desc>
	Creator: FreeHEP Graphics2D Driver Producer: org.freehep.graphicsio.svg.SVGGraphics2D Revision Source:  Date: Wednesday, July 19, 2017 8:24:31 PM PDT
	</desc>
<g>
	<g transform="matrix(1, 0, 0, 1, -145, -163)">
		<g>
			<path fill="#EDF4F6" d="M146.321,171.351v13.299c0,4.142,3.358,7.5,7.5,7.5h64.357c4.142,0,7.5-3.358,7.5-7.5v-13.299
				c0-4.142-3.358-7.5-7.5-7.5h-64.357C149.679,163.851,146.321,167.208,146.321,171.351z"/>
		</g>
	</g>
	<g transform="matrix(1, 0, 0, 1, 11, 19.1171875)">
		<g>
			<path d="M9.316-6.545L7.611,0h-1.02L4.91-5.045L3.24,0H2.227L0.504-6.545h1.148l1.201,5.068l1.635-5.068h0.908l1.676,5.068
				l1.137-5.068H9.316z M16.482-3.27c0,1.066-0.273,1.908-0.82,2.525s-1.279,0.926-2.197,0.926c-0.926,0-1.661-0.309-2.206-0.926
				s-0.817-1.459-0.817-2.525s0.272-1.909,0.817-2.528s1.28-0.929,2.206-0.929c0.918,0,1.65,0.31,2.197,0.929
				S16.482-4.336,16.482-3.27z M15.346-3.27c0-0.848-0.166-1.478-0.498-1.89s-0.793-0.618-1.383-0.618
				c-0.598,0-1.062,0.206-1.392,0.618s-0.495,1.042-0.495,1.89c0,0.82,0.166,1.442,0.498,1.866s0.795,0.636,1.389,0.636
				c0.586,0,1.046-0.21,1.38-0.63S15.346-2.441,15.346-3.27z M22.271-5.344h-0.059c-0.164-0.039-0.323-0.067-0.478-0.085
				s-0.337-0.026-0.548-0.026c-0.34,0-0.668,0.075-0.984,0.226s-0.621,0.345-0.914,0.583V0h-1.102v-6.545h1.102v0.967
				c0.438-0.352,0.823-0.601,1.157-0.747s0.675-0.22,1.022-0.22c0.191,0,0.33,0.005,0.416,0.015s0.215,0.028,0.387,0.056V-5.344z
				 M24.422,0H23.32v-9.117h1.102V0z M31.91,0h-1.102v-0.686c-0.316,0.273-0.646,0.486-0.99,0.639s-0.717,0.229-1.119,0.229
				c-0.781,0-1.401-0.301-1.86-0.902S26.15-2.156,26.15-3.223c0-0.555,0.079-1.049,0.237-1.482s0.372-0.803,0.642-1.107
				c0.266-0.297,0.575-0.523,0.929-0.68s0.72-0.234,1.099-0.234c0.344,0,0.648,0.036,0.914,0.108s0.545,0.185,0.838,0.337v-2.836
				h1.102V0z M30.809-1.611v-3.756c-0.297-0.133-0.562-0.225-0.797-0.275s-0.49-0.076-0.768-0.076c-0.617,0-1.098,0.215-1.441,0.645
				s-0.516,1.039-0.516,1.828c0,0.777,0.133,1.368,0.398,1.772s0.691,0.606,1.277,0.606c0.312,0,0.629-0.069,0.949-0.208
				S30.531-1.393,30.809-1.611z M39.738-6.545L37.09,0h-1.107l-2.631-6.545h1.195l2.027,5.209l2.01-5.209H39.738z M42.363-7.641
				h-1.242v-1.143h1.242V-7.641z M42.293,0h-1.102v-6.545h1.102V0z M49.951-3.158h-4.822c0,0.402,0.061,0.753,0.182,1.052
				s0.287,0.544,0.498,0.735c0.203,0.188,0.444,0.328,0.724,0.422s0.587,0.141,0.923,0.141c0.445,0,0.894-0.089,1.345-0.267
				s0.772-0.353,0.964-0.524h0.059v1.201c-0.371,0.156-0.75,0.287-1.137,0.393s-0.793,0.158-1.219,0.158
				c-1.086,0-1.934-0.294-2.543-0.882S44.01-2.152,44.01-3.234c0-1.07,0.292-1.92,0.876-2.549s1.353-0.943,2.306-0.943
				c0.883,0,1.563,0.258,2.042,0.773s0.718,1.248,0.718,2.197V-3.158z M48.879-4.002c-0.004-0.578-0.149-1.025-0.437-1.342
				s-0.724-0.475-1.31-0.475c-0.59,0-1.06,0.174-1.409,0.521s-0.548,0.779-0.595,1.295H48.879z M59.854-6.545L58.148,0h-1.02
				l-1.682-5.045L53.777,0h-1.014l-1.723-6.545h1.148l1.201,5.068l1.635-5.068h0.908l1.676,5.068l1.137-5.068H59.854z"/>
		</g>
	</g>
	<g transform="matrix(1, 0, 0, 1, -145, -163)">
		<g>
			<path fill="none" stroke="#000000" stroke-width="3" stroke-linecap="square" stroke-miterlimit="10" d="M146.321,171.351v13.299
				c0,4.142,3.358,7.5,7.5,7.5h64.357c4.142,0,7.5-3.358,7.5-7.5v-13.299c0-4.142-3.358-7.5-7.5-7.5h-64.357
				C149.679,163.851,146.321,167.208,146.321,171.351z"/>
		</g>
	</g>
</g>
</svg>
